<svg width="40" height="40" viewBox="0 0 40 40" fill="none" xmlns="http://www.w3.org/2000/svg"><path d="M18.333 19.833v8.5a1.667 1.667 0 003.334 0v-8.5a8.334 8.334 0 10-3.334 0zM20 6.667a5 5 0 110 10 5 5 0 010-10zm7.017 17.366a1.702 1.702 0 10-.7 3.334c3.783.75 5.35 2.1 5.35 2.633 0 .967-4.084 3.333-11.667 3.333S8.333 30.967 8.333 30c0-.533 1.567-1.883 5.35-2.7a1.702 1.702 0 10-.7-3.333C7.917 25.133 5 27.317 5 30c0 4.383 7.55 6.667 15 6.667S35 34.383 35 30c0-2.683-2.917-4.867-7.983-5.967z" fill="#2059EA"/></svg>