<svg width="40" height="40" viewBox="0 0 40 40" fill="none" xmlns="http://www.w3.org/2000/svg"><path d="M35 33.334H6.668v-.9l8.334-8.334 6.333 6.333a1.667 1.667 0 002.35 0l12.5-12.5a1.666 1.666 0 00-1.175-2.85c-.44 0-.863.173-1.175.484L22.501 26.9l-6.317-6.333a1.667 1.667 0 00-2.35 0l-7.167 7.15V19.1l8.334-8.333 4.666 4.667a1.667 1.667 0 002.35 0l7.984-7.984 3.65 3.65A1.667 1.667 0 1036 8.733l-4.85-4.816a1.667 1.667 0 00-2.35 0l-8 8-4.65-4.667a1.667 1.667 0 00-2.35 0l-7.134 7.133V5a1.667 1.667 0 00-3.333 0v30A1.667 1.667 0 005 36.667h30a1.667 1.667 0 000-3.334z" fill="#0069FF"/></svg>