<svg width="40" height="40" viewBox="0 0 40 40" fill="none" xmlns="http://www.w3.org/2000/svg"><path d="M15.333 22.883a1.666 1.666 0 00-2.35-.083 18.633 18.633 0 00-6.317 13.866 1.667 1.667 0 103.333 0 15.25 15.25 0 015.25-11.433 1.667 1.667 0 00.084-2.35zm16.95 7.733a18.101 18.101 0 00-2.667-5A23.85 23.85 0 0023.433 20c3.733-2.384 9.9-7.667 9.9-16.667a1.667 1.667 0 10-3.334 0c0 9-7.65 13.617-10 14.817A22.369 22.369 0 0115.516 15h4.483a1.667 1.667 0 000-3.334h-7.416a15.648 15.648 0 01-1.667-3.333h14.083A1.667 1.667 0 1025 5H10.1a13.57 13.57 0 01-.1-1.667 1.667 1.667 0 00-3.333 0c0 12.617 12.167 17.984 12.683 18.2A21.55 21.55 0 0124.5 25H20a1.667 1.667 0 000 3.333h7.384a15.115 15.115 0 011.666 3.334H15A1.667 1.667 0 0015 35h14.9c.067.553.1 1.11.1 1.666a1.666 1.666 0 103.334 0 17.496 17.496 0 00-.367-3.65c-.162-.817-.39-1.62-.683-2.4z" fill="#0069FF"/></svg>