<svg width="808" height="423" viewBox="0 0 808 423" fill="none" xmlns="http://www.w3.org/2000/svg"><g clip-path="url(#clip0_4178_41468)"><path d="M1.44 419v-1.044h1.968v-6.36h.624l-2.4 1.464v-1.2l2.124-1.32h.9v7.416h1.848V419H1.44zm10.35 0v-8.46h.96l5.197 6.816h-.3v-6.816h1.164V419h-.948l-5.184-6.816h.275V419H11.79zm11.684.108c-.6 0-1.12-.124-1.56-.372a2.606 2.606 0 01-1.02-1.08c-.24-.472-.36-1.032-.36-1.68 0-.648.12-1.204.36-1.668.24-.472.58-.832 1.02-1.08.44-.256.96-.384 1.56-.384.6 0 1.12.128 1.56.384.449.248.793.608 1.033 1.08.247.464.372 1.02.372 1.668 0 .648-.125 1.208-.372 1.68-.24.464-.584.824-1.032 1.08-.44.248-.96.372-1.56.372zm0-.948c.529 0 .948-.184 1.26-.552.313-.368.468-.912.468-1.632 0-.72-.155-1.26-.468-1.62-.312-.368-.732-.552-1.26-.552-.52 0-.936.184-1.247.552-.313.36-.468.9-.468 1.62 0 .72.151 1.264.456 1.632.311.368.732.552 1.26.552zm6.252.84l-2.592-6.048h1.296l2.04 5.052h-.348l2.076-5.052h1.236L30.83 419h-1.104z" fill="#737B7D"/><path fill="#E2E5E6" d="M0 343h552v1H0zm0-49h552v1H0zm0-49h552v1H0zm0-49h552v1H0zm0-49h552v1H0zm0-49h552v1H0zm0-49h552v1H0zM0 0h552v1H0zm0 392h552v1H0z"/></g><g clip-path="url(#clip1_4178_41468)"><path d="M770.414 419.108a5.429 5.429 0 01-1.656-.252c-.528-.176-.968-.424-1.32-.744l.432-.948a4.3 4.3 0 001.2.672c.408.144.844.216 1.308.216.592 0 1.04-.124 1.344-.372.312-.248.468-.604.468-1.068 0-.456-.156-.8-.468-1.032-.304-.24-.756-.36-1.356-.36h-1.308v-1.008h1.212c.512 0 .92-.128 1.224-.384.304-.264.456-.62.456-1.068 0-.408-.14-.72-.42-.936-.28-.224-.68-.336-1.2-.336-.88 0-1.652.308-2.316.924l-.42-.948c.328-.328.744-.58 1.248-.756a4.583 4.583 0 011.584-.276c.848 0 1.516.196 2.004.588.488.384.732.92.732 1.608 0 .52-.148.964-.444 1.332-.288.368-.684.612-1.188.732v-.132c.6.096 1.06.336 1.38.72.328.376.492.848.492 1.416 0 .752-.268 1.344-.804 1.776-.528.424-1.256.636-2.184.636zm7.479 0c-.976 0-1.728-.372-2.256-1.116-.52-.752-.78-1.828-.78-3.228 0-1.424.26-2.5.78-3.228.528-.736 1.28-1.104 2.256-1.104.984 0 1.736.368 2.256 1.104.52.728.78 1.8.78 3.216 0 1.408-.264 2.488-.792 3.24-.52.744-1.268 1.116-2.244 1.116zm0-1.044c.616 0 1.072-.268 1.368-.804.304-.536.456-1.372.456-2.508 0-1.144-.152-1.976-.456-2.496-.296-.528-.752-.792-1.368-.792-.608 0-1.064.264-1.368.792-.304.52-.456 1.348-.456 2.484 0 1.144.152 1.984.456 2.52.312.536.768.804 1.368.804zm8.191.936v-8.46h.96l5.196 6.816h-.3v-6.816h1.164V419h-.948l-5.184-6.816h.276V419h-1.164zm11.684.108c-.6 0-1.12-.124-1.56-.372a2.606 2.606 0 01-1.02-1.08c-.24-.472-.36-1.032-.36-1.68 0-.648.12-1.204.36-1.668.24-.472.58-.832 1.02-1.08.44-.256.96-.384 1.56-.384.6 0 1.12.128 1.56.384.448.248.792.608 1.032 1.08.248.464.372 1.02.372 1.668 0 .648-.124 1.208-.372 1.68-.24.464-.584.824-1.032 1.08-.44.248-.96.372-1.56.372zm0-.948c.528 0 .948-.184 1.26-.552.312-.368.468-.912.468-1.632 0-.72-.156-1.26-.468-1.62-.312-.368-.732-.552-1.26-.552-.52 0-.936.184-1.248.552-.312.36-.468.9-.468 1.62 0 .72.152 1.264.456 1.632.312.368.732.552 1.26.552zm6.251.84l-2.592-6.048h1.296l2.04 5.052h-.348l2.076-5.052h1.236L805.123 419h-1.104z" fill="#737B7D"/><path fill="#E2E5E6" d="M552 343h256v1H552zm0-49h256v1H552zm0-49h256v1H552zm0-49h256v1H552zm0-49h256v1H552zm0-49h256v1H552zm0-49h256v1H552zm0-49h256v1H552zm0 392h256v1H552z"/></g><g clip-path="url(#clip2_4178_41468)"><g clip-path="url(#clip3_4178_41468)"><path opacity=".1" d="M-345.955 252.066l-42.365 133.649c-1.226 3.869 1.661 7.813 5.719 7.813H3344.25c3.31 0 6-2.686 6-6V78.583a6 6 0 00-1.65-4.135l-44.63-46.927c-2.82-2.973-7.73-2.295-9.65 1.332l-45.11 85.375c-1.63 3.09-5.55 4.136-8.5 2.271l-40.44-25.512c-3.18-2.005-7.39-.629-8.78 2.864l-45.19 114.057c-1.77 4.477-7.84 5.145-10.54 1.161L3094.28 148c-2.15-3.166-6.68-3.537-9.32-.764l-41.77 43.927c-2.64 2.773-7.16 2.402-9.31-.763l-44.59-65.645a5.996 5.996 0 00-8.16-1.703l-42.39 26.745a6.008 6.008 0 01-8.05-1.532l-42.91-58.67c-2.66-3.625-8.2-3.16-10.21.856l-44.67 89.239a5.992 5.992 0 01-8.56 2.389l-41.22-26.006c-2.86-1.801-6.64-.893-8.36 2.009l-46.22 77.756a5.995 5.995 0 01-7.48 2.465l-42.85-18.022a6.005 6.005 0 00-7.17 1.988l-43.71 59.76c-2.58 3.528-7.95 3.201-10.08-.613l-43.92-78.524c-1.84-3.287-6.22-4.087-9.1-1.662l-42.16 35.464a6 6 0 01-8.21-.457l-44.02-46.285a5.998 5.998 0 00-8.47-.224l-42.23 39.972c-2.8 2.643-7.32 2.014-9.29-1.292l-45.28-76.199c-1.64-2.744-5.13-3.73-7.95-2.245l-42.42 22.299a5.994 5.994 0 01-7.63-1.768l-44.96-61.456c-2.13-2.917-6.34-3.299-8.96-.815l-42.96 40.658a6.001 6.001 0 01-8.25 0l-42.04-39.783c-2.92-2.766-7.69-1.927-9.49 1.673l-44.01 87.933c-2.01 4.016-7.56 4.482-10.21.857l-43.17-59.015a5.994 5.994 0 00-7.63-1.768l-42.41 22.299a5.998 5.998 0 01-7.95-2.245l-45.29-76.198c-1.97-3.306-6.49-3.936-9.28-1.293l-42.24 39.972a5.998 5.998 0 01-8.47-.223l-44.02-46.286a6 6 0 00-8.21-.457l-42.15 35.464c-2.88 2.425-7.26 1.625-9.1-1.662l-43.93-78.524c-2.13-3.814-7.5-4.14-10.08-.613l-43.71 59.76a6.002 6.002 0 01-7.17 1.989l-42.85-18.023a5.995 5.995 0 00-7.48 2.466l-46.21 77.755c-1.73 2.902-5.51 3.811-8.36 2.009l-41.22-26.006a6.003 6.003 0 00-8.57 2.389l-44.66 89.239c-2.01 4.016-7.56 4.481-10.21.857l-42.92-58.67a5.995 5.995 0 00-8.04-1.532l-42.39 26.744a6.006 6.006 0 01-8.17-1.703l-44.59-65.645c-2.15-3.165-6.67-3.536-9.31-.763l-41.77 43.927c-2.64 2.773-7.16 2.402-9.31-.763l-41.48-61.07c-2.71-3.984-8.77-3.316-10.55 1.161l-45.19 114.057c-1.38 3.493-5.6 4.869-8.78 2.864l-40.43-25.512c-2.96-1.865-6.88-.819-8.51 2.272l-45.11 85.374c-1.91 3.628-6.82 4.305-9.65 1.332l-41.93-44.092a5.993 5.993 0 00-8.69 0L962.111 284c-2.691 2.829-7.325 2.375-9.415-.923l-44.014-69.425c-2.021-3.188-6.45-3.74-9.192-1.145l-44.177 41.81a6 6 0 01-5.929 1.364l-46.789-14.761a6.001 6.001 0 01-3.038-2.179l-46.849-64.045c-2.133-2.916-6.342-3.299-8.967-.815l-43.7 41.358a6 6 0 01-7.326.717l-43.533-27.467a6 6 0 00-7.904 1.348l-45.337 57.211a6.002 6.002 0 01-7.905 1.348l-43.532-27.467a6 6 0 00-7.326.717l-43.701 41.358c-2.624 2.484-6.833 2.102-8.966-.815l-46.85-64.044a5.996 5.996 0 00-3.037-2.18l-46.789-14.761a6.001 6.001 0 00-5.93 1.365l-42.934 40.633c-3.109 2.942-8.21 1.776-9.732-2.225L285.401 105.73c-1.878-4.937-8.759-5.214-11.027-.444l-42.25 88.857c-1.807 3.801-6.865 4.608-9.766 1.558l-40.261-42.337c-2.827-2.973-7.737-2.295-9.653 1.332l-45.105 85.375a6 6 0 01-8.506 2.271l-40.19-25.357c-3.258-2.055-7.581-.552-8.86 3.081L24.661 348.173c-1.716 4.871-8.374 5.443-10.896.936l-41.573-74.319c-1.973-3.527-6.799-4.134-9.584-1.205l-41.292 43.421c-2.637 2.773-7.161 2.402-9.312-.763l-44.59-65.645a5.999 5.999 0 00-8.164-1.703l-42.389 26.744a6 6 0 01-8.044-1.532l-44.273-60.522c-2.278-3.114-6.859-3.3-9.382-.382l-44.251 51.187a6 6 0 01-6.865 1.606l-41.956-17.647a6 6 0 00-8.046 3.717z" fill="#3C64B1"/><path d="M-390.797 393.528l44.842-141.462a6 6 0 018.046-3.717l41.956 17.647a6 6 0 006.865-1.606l44.251-51.187c2.523-2.918 7.104-2.732 9.382.382l44.273 60.522a6 6 0 008.044 1.532l42.389-26.744a5.999 5.999 0 018.164 1.703l44.59 65.645c2.15 3.165 6.675 3.536 9.312.763l41.292-43.421c2.785-2.929 7.61-2.322 9.584 1.205l41.573 74.319c2.522 4.507 9.18 3.935 10.896-.936l45.12-128.107c1.28-3.633 5.603-5.136 8.861-3.081l40.19 25.357a6 6 0 008.506-2.271l45.105-85.375c1.916-3.627 6.826-4.305 9.653-1.332l40.261 42.337c2.901 3.05 7.959 2.243 9.766-1.558l42.25-88.857c2.268-4.77 9.149-4.493 11.027.444l43.838 115.247c1.522 4.001 6.623 5.167 9.732 2.225l42.934-40.633a6.001 6.001 0 015.93-1.365l46.789 14.761a5.996 5.996 0 013.037 2.18l46.85 64.044c2.133 2.917 6.342 3.299 8.966.815l43.701-41.358a6 6 0 017.326-.717l43.532 27.467a6.002 6.002 0 007.905-1.348l45.337-57.211a6 6 0 017.904-1.348l43.533 27.467a6 6 0 007.326-.717l43.7-41.358c2.625-2.484 6.834-2.101 8.967.815l46.849 64.045a6.001 6.001 0 003.038 2.179l46.789 14.761a6 6 0 005.929-1.364l44.177-41.81c2.742-2.595 7.171-2.043 9.192 1.145l44.014 69.425c2.09 3.298 6.724 3.752 9.415.922l42.389-44.57a5.993 5.993 0 018.69 0l41.93 44.092c2.83 2.973 7.74 2.296 9.65-1.332l45.11-85.374c1.63-3.091 5.55-4.137 8.51-2.272l40.43 25.512c3.18 2.005 7.4.629 8.78-2.864l45.19-114.057c1.78-4.477 7.84-5.145 10.55-1.161l41.48 61.07c2.15 3.165 6.67 3.536 9.31.763l41.77-43.927c2.64-2.773 7.16-2.402 9.31.763l44.59 65.645a6.006 6.006 0 008.17 1.703l42.39-26.744a5.995 5.995 0 018.04 1.532l42.92 58.67c2.65 3.624 8.2 3.159 10.21-.857l44.66-89.239a6.003 6.003 0 018.57-2.389l41.22 26.006c2.85 1.802 6.63.893 8.36-2.009l46.21-77.755a5.995 5.995 0 017.48-2.466l42.85 18.023a6.002 6.002 0 007.17-1.989l43.71-59.76c2.58-3.527 7.95-3.2 10.08.613l43.93 78.524c1.84 3.287 6.22 4.087 9.1 1.662l42.15-35.464a6 6 0 018.21.457l44.02 46.286a5.998 5.998 0 008.47.223l42.24-39.972c2.79-2.643 7.31-2.013 9.28 1.293l45.29 76.198a5.998 5.998 0 007.95 2.245l42.41-22.299a5.994 5.994 0 017.63 1.768l43.17 59.015c2.65 3.625 8.2 3.159 10.21-.857l44.01-87.933c1.8-3.6 6.57-4.439 9.49-1.673l42.04 39.783a6.001 6.001 0 008.25 0l42.96-40.658c2.62-2.484 6.83-2.102 8.96.815l44.96 61.456c1.76 2.4 5 3.152 7.63 1.768l42.42-22.299c2.82-1.485 6.31-.499 7.95 2.245l45.28 76.199c1.97 3.306 6.49 3.935 9.29 1.292l42.23-39.972a5.998 5.998 0 018.47.224l44.02 46.285a6 6 0 008.21.457l42.16-35.464c2.88-2.425 7.26-1.625 9.1 1.662l43.92 78.524c2.13 3.814 7.5 4.141 10.08.613l43.71-59.76a6.005 6.005 0 017.17-1.988l42.85 18.022a5.995 5.995 0 007.48-2.465l46.22-77.756c1.72-2.902 5.5-3.81 8.36-2.009l41.22 26.006c3 1.893 6.97.784 8.56-2.389l44.67-89.239c2.01-4.015 7.55-4.48 10.21-.857l42.91 58.671a6.01 6.01 0 008.05 1.532l42.39-26.745a5.996 5.996 0 018.16 1.703l44.59 65.645c2.15 3.165 6.67 3.536 9.31.763l41.77-43.927c2.64-2.773 7.17-2.402 9.32.764l41.48 61.069c2.7 3.984 8.77 3.316 10.54-1.161l45.19-114.057c1.39-3.493 5.6-4.869 8.78-2.864l40.44 25.512c2.95 1.865 6.87.819 8.5-2.271l45.11-85.375c1.92-3.627 6.82-4.305 9.65-1.332l46.28 48.665" stroke="#3C64B1"/></g></g><defs><clipPath id="clip0_4178_41468"><path fill="#fff" d="M0 0h552v423H0z"/></clipPath><clipPath id="clip1_4178_41468"><path fill="#fff" transform="translate(552)" d="M0 0h256v423H0z"/></clipPath><clipPath id="clip2_4178_41468"><path fill="#fff" transform="translate(0 99)" d="M0 0h808v293H0z"/></clipPath><clipPath id="clip3_4178_41468"><path fill="#fff" transform="translate(-396 16)" d="M0 0h1332v383H0z"/></clipPath></defs></svg>